<svg xmlns="http://www.w3.org/2000/svg" viewBox="0 0 353 86.52"><defs><style>.cls-1{fill:#0071bc;}</style></defs><g id="Layer_2" data-name="Layer 2"><g id="Layer_1-2" data-name="Layer 1"><path class="cls-1" d="M37.76,40.88l.08-.05.39-.24.19-.12.24-.17v-.07a3.66,3.66,0,0,1-.8.3l-.06,0-.12.2-.17.26.18-.1Z"/><path class="cls-1" d="M39,41l.14-.06.12-.1a6.4,6.4,0,0,0,.49-.42l.14-.16-.68.56Z"/><path class="cls-1" d="M11.19,65c-.18.22-.36.44-.53.67A5.78,5.78,0,0,0,11.19,65Z"/><path class="cls-1" d="M161.42,8.29l-3.67,1.44a.43.43,0,0,1,0,.07l.36-.12a2.14,2.14,0,0,0-.48.28l0,0C158.87,9.49,160.16,8.91,161.42,8.29Z"/><path class="cls-1" d="M149.69,17.26c.65-.21,1.29-.41,1.92-.63a1.34,1.34,0,0,0-.24.12l.32-.1,1.47-.45,3.4-1.16-1.68.43a48.07,48.07,0,0,0-4.69,1.47,1.77,1.77,0,0,0,.44-.25c-.93.34-1.86.68-2.78,1.06a5.49,5.49,0,0,1-.51.21l-.69.27,2-.64A7.57,7.57,0,0,1,149.69,17.26Z"/><path class="cls-1" d="M111.22,68.66l.08.11c.13-.39.26-.78.38-1.18C111.52,68,111.37,68.3,111.22,68.66Z"/><path class="cls-1" d="M0,56.93a1.49,1.49,0,0,0,0,.21l.5-.21,1.24-.69C1.19,56.5.61,56.72,0,56.93Z"/><path class="cls-1" d="M1.06,57.7,2,57.15l-1,.56Z"/><path class="cls-1" d="M2.58,57.39l.71-.47c-.46.18-.92.38-1.37.61Z"/><path class="cls-1" d="M3.24,55.57a2.93,2.93,0,0,0-.75.29c-.45.28-.89.55-1.34.81.67-.26,1.35-.5,2-.75L4,55.56A1.89,1.89,0,0,0,3.24,55.57Z"/><path class="cls-1" d="M3,56.57l-1.4.84C2.28,57,3,56.6,3.74,56.22l-.46.16-.1.06Z"/><path class="cls-1" d="M.41,57.38l-.23.12L0,57.59v0l.75-.37Z"/><path class="cls-1" d="M161.37,8c-1.17.37-2.35.7-3.53,1l.21.15-.09.2C159.09,8.89,160.22,8.42,161.37,8Zm0,0c-1.17.37-2.35.7-3.53,1l.21.15-.09.2C159.09,8.89,160.22,8.42,161.37,8Zm-48.7,57.59a.72.72,0,0,1,.15-.07l.22-.82-.45.94Z"/><path class="cls-1" d="M353,5.21C353,2,351.47.52,348.23.44c-2.28-.06-4.57,0-6.85,0-11.94,0-23.88,0-35.82,0C293.43.41,281.29.31,269.15.3q-27.87,0-55.74,0c-16.5,0-33-.57-49.5-.23-6.63.15-13.26,0-19.9.15-3.27.07-4.11,1.31-4,4.67.06,1.24.24,3.17-.83,3.51-2.32.74-4.76,1.92-7.22,1.39a5.57,5.57,0,0,0-4.75,1,3.63,3.63,0,0,1-1.22.77,158.24,158.24,0,0,0-18,6.24c-1.84.72-3.51,1.74-3.29,4.15.78.71,1.95.63,2.69,1.57a2.38,2.38,0,0,0-.28,1.57l.54-.32a28.22,28.22,0,0,1,3.22-1.58c-.28.12-.52.35-.81.48-.87.39-1.74.78-2.58,1.23l-.28.15h0l0,0h0a.67.67,0,0,0,.16.25c.76-.48,1.54-.94,2.32-1.41l.37-.21-.37.22c-.78.46-1.54.93-2.3,1.43l.07.06.76-.48a16.3,16.3,0,0,1,3.44-1.6c-.29.09-.52.38-.81.49-.49.17-1,.35-1.46.56l-.65.31-.36.18-.14.08-.14.09-.33.22-.25.19a1.6,1.6,0,0,0,.73.25c1-.67,2.09-1.29,3.14-1.91l.23-.14-.23.14c-1,.62-2,1.24-3,1.94a2.06,2.06,0,0,0,0,.7,38.34,38.34,0,0,1,4.75-2.79c-.33.16-.61.4-.94.56a25.3,25.3,0,0,0-3.49,2.11l-.3.22a3.62,3.62,0,0,0,.24.7l1-.64a4,4,0,0,1,.49-.29l-.27.17c-.42.25-.83.52-1.23.8.1.2.22.41.34.61.75-.63,1.5-1.27,2.24-1.93.23-.2.6-.28.83-.49-1,.89-2,1.73-3,2.57a9,9,0,0,1,.66,1.22l.16-.13c.22-.2.55-.28.78-.47l-.89.75a2.14,2.14,0,0,1-.13,1.8c.34-.26.69-.51,1-.78s.55-.28.78-.46c-.52.42-1.06.81-1.6,1.22a15,15,0,0,0,1.76-1.32c.18-.17.46-.22.64-.38a16.72,16.72,0,0,1-2.58,1.83l-.16.13a4.21,4.21,0,0,1-.67.79h.57l.5-.39c.5-.4,1-.83,1.47-1.26a1.76,1.76,0,0,1,.37-.23,2.88,2.88,0,0,0,.38-.22,25.62,25.62,0,0,1-2.58,2.09c4.83-.19,7.88-4.61,12.69-3.61-1.24,2.74-1.65,5.56-3.11,8.08a19.34,19.34,0,0,0-2.57,6.49c-.49,2.87-1.77,4-4,3.89-4.06-.15-8.13-.24-12.19-.52-6.67-.47-13.35-1-20-1.72-2.27-.26-4.71-.06-6.78-1.32A1.2,1.2,0,0,1,74,42.14a69.87,69.87,0,0,1,7-4.49c.93-.48,1.16-1.84,1.84-1.72,2.35.44,3.27-2.18,5.33-2.22A1,1,0,0,0,89,32.8a3.13,3.13,0,0,1,2.52-2.92c1-.3,1.75-1.32,2.84-.22.26.28.68.1,1-.12a17,17,0,0,0,5.81-6.94c1.15-2.68,1.69-5.65-.75-8.19a3.2,3.2,0,0,1-.75-1.75c-.72-4.3-3.81-6-7.61-7.16-5.6-1.74-11.26-1.73-17-1.22-4.63.41-9,1.59-12.55,4.9a2.14,2.14,0,0,0-.32,3.21c2,2.71,3.66,5.5,3.27,9.08,0,.43.36.91.57,1.36.54,1.2,2,1,2.89,1.9,0,1.87-1.12,3.48-1.58,5.25A4.23,4.23,0,0,1,64,33.12c-3.29.94-6.78.78-10,2-1.38.51-2.1-.4-2-1.9.42-4.61.84-9.22,1.2-13.84C53.37,17.19,53.46,15,52,13c-1.19-1.65-2.66-3.12-3.54-5-.31-.65-1.27-1.54-2.12-.77S44.6,7.54,43.6,8a11.39,11.39,0,0,1-1.9,6.36q-8,11.5-15.75,23.2c-1.49,2.25-3.26,4.31-4.37,6.85a5.59,5.59,0,0,1-4.15,3.39A33.57,33.57,0,0,0,5.11,53c-1.36.89-3.05,1.09-4.27,2.37l-.12.13a26.8,26.8,0,0,1,2.81-1.22c1-.54,1.91-1.05,2.89-1.54-.5.25-1.33.86-2,1.18a2,2,0,0,0-.25.14,11.39,11.39,0,0,1,2.25-.47l0,0c-.36.24-.73.48-1.11.71l.08,0,.87-.41c-.21.1-.41.25-.61.37.22,0,.36,0,.25.28a1.31,1.31,0,0,1-.12.15c.43-.2.87-.4,1.29-.61-.25.12-.47.31-.72.44l-.9.43c-.25.15-.54.28-.72.39a0,0,0,0,1,0,0L6,54.92a7,7,0,0,0-1.38.86c.29-.14.57-.27.86-.39-.27.12-.5.34-.78.47-1.21.55-2.39,1.17-3.55,1.82l.62-.12A14.74,14.74,0,0,1,4,56.44l.22-.12a2.07,2.07,0,0,1,.32-.19s0,0,0,0h0l0,0,0,0-.41.26c.19-.07.39-.14.58-.19-.26.07-.47.34-.73.44s-.38.14-.56.21l-.77.5,1.18-.26c.86-.43,1.72-.86,2.59-1.26-.25.11-.46.31-.71.43l-.89.43.61-.27-.28.16h0l-.06,0-.35.22,0,0-.09,0,.59-.14-1,.62-.29.22a13,13,0,0,1,1.4-.17L6.92,57a2.75,2.75,0,0,0-.82.48h0a3.51,3.51,0,0,1-1,.59L5,58.17c.7-.21,1.4-.41,2.11-.58-.62.16-1.11.88-1.73,1a29.14,29.14,0,0,0-3.17,1l.32.26c2.71-1,5.31-2.29,8-3.31-.64.25-1.19.81-1.83,1.1-1.94.87-3.89,1.73-5.87,2.52l.29.28,1.21-.41a5.76,5.76,0,0,1,3-.37l-.88.53-.14.09-.06,0L7,60.16c.24-.06.46-.12.7-.16h0L8,59.93c-.66.23-1.21,1-1.9,1.19a18.76,18.76,0,0,0-1.86.48l.24.22c1.39-.51,2.77-1,4.11-1.67-.59.27-1.11.71-1.7,1s-1.35.66-2,1l.1.07a26.64,26.64,0,0,0,2.55-1c-.71.34-1.33.87-2,1.22l-.13.06a2.59,2.59,0,0,0,.33.19q1.62-.88,3.3-1.65c-.62.28-1.17.76-1.79,1.07-.45.23-.9.44-1.35.66a4.33,4.33,0,0,0,.74.27,3.13,3.13,0,0,1,2.08,1.49c.36-.46.74-.91,1.11-1.36s1.39-.54,1.73-1c-.57.84-1.19,1.66-1.75,2.51A33,33,0,0,0,12,62.16a2.44,2.44,0,0,1,.54-.33L13,61.6a.48.48,0,0,0,.16-.08,31.19,31.19,0,0,1-2.86,3l0,0a3.93,3.93,0,0,1,1-.57l.42-.25.33-.31a4.21,4.21,0,0,1,.45-.28,3,3,0,0,0,.47-.26c-.46.42-.88.88-1.31,1.34l.24-.12c.12-.08.32-.15.45-.25-.37.39-.72.79-1.06,1.2l.11-.06a3.37,3.37,0,0,1,.32-.19l.33-.2.13-.07a4.32,4.32,0,0,1-.62.79,5.05,5.05,0,0,1-.77.63.57.57,0,0,0,.13-.08c-.48.79-1.08,1.53-1.49,2.36,0,0-.09.07-.13.09l.53.19c.71.24,1.54,0,2.16.71a34.79,34.79,0,0,0,5.15,5.3l.06,0a.41.41,0,0,1,0-.08A34.51,34.51,0,0,1,19.43,70c.24-.4,1.18-.43,1.38-.82-.69,1.38-1.36,2.78-1.95,4.21-.08.22-.16.44-.25.66a.82.82,0,0,0,.42-.34c-.11.24-.2.47-.3.71,1.59-3.21,3.42-6.22,5.13-9.29,2.32-4.18,4.49-8.25,9.59-9.57,1.8-.47,3.54-1.18,5.69-1.9-.24,1.34-.42,2.23-.56,3.13s-.21,2.34.63,2.49c3.34.62,2.68,5.2,5.95,5.75.1,0,.1.43.25.56,1,.88.19,2,.39,3.31C47.1,67.63,48,66.62,48.15,65c.41-4.26,1-8.51,1.5-12.77s.57-4.24,4.83-5.05c.42-.08.82-.25,1.23-.35L62,45.21c-2.82,8-4.79,15.79-8.38,23a2.69,2.69,0,0,0,.07,3.1,4.54,4.54,0,0,1,1-.59,22.44,22.44,0,0,1,1-2.41s.1-.06.13-.08l.31-.18.3-.19.13-.07c-.4.91-.77,1.85-1.09,2.79a1.18,1.18,0,0,1,.78.48c.18-.55.36-1.1.56-1.64,0,0,.12-.08.15-.1l.38-.23.38-.23s.16-.07.16-.09c-.33,1.2-.68,2.37-1,3.56l0,.07c.09.31.19.61.31.91.09-.35.18-.69.28-1,0,0,.1-.07.13-.09l.17-.1c.3-1.29.66-2.57,1-3.85,0,0,.12-.08.15-.1l.37-.22c.08,0,.51-.24.53-.31a69.58,69.58,0,0,0-1.63,7.82l0,0c.57-2.22,1.25-4.42,2-6.59,0-.09.33-.2.4-.25s.4-.17.42-.24c-.37,1.3-.76,2.6-1.12,3.9l.17-.09c.06,0,.43-.2.43-.25l-.1.68s0,0,.05,0q.12-.41.27-.78s.1-.06.13-.08l.31-.19.12-.07c.2-.82.41-1.64.64-2.45a1,1,0,0,1,.15-.09l.36-.22c.07,0,.5-.23.52-.3-.26,1.23-.55,2.45-.8,3.68s-.5,2.45-.74,3.68a2.12,2.12,0,0,1,0,1.51,2.25,2.25,0,0,1,.4-.21c.06,0,.44-.21.44-.27l-.39,2.49c.23-.89.45-1.77.69-2.65,0,0,.08-.06.1-.07l.07-.05c.27-1,.53-2.09.81-3.14,0-.07.31-.19.37-.22s.37-.17.38-.22c-.45,1.86-.91,3.71-1.35,5.58a7.29,7.29,0,0,0,1.88-3.28c1.56-6.45,3.29-12.86,4.63-19.36.5-2.36,1.31-2.79,3.43-1.64a13,13,0,0,0,3.69,1.55c-1.43.86-2.58-.39-4,.21a6.48,6.48,0,0,0,3.16,1.5A52.59,52.59,0,0,1,84,58.56a12,12,0,0,0,3.83.29c1-.06,1.86.08,2.8-1.19s3.28-.94,4.89,0c1.14.68,2.46,1.23,3.56.83,2.66-1,5.28-.3,8.2-.43-1.31,1.4-3.12.35-4.6,1.78,2.28,0,4.1,0,5.9-.08,2.21-.12,2.31,0,1.49,1.95a15.34,15.34,0,0,0-1,2.83,5.15,5.15,0,0,0-.19,2.12q.64-1.68,1.32-3.36a.69.69,0,0,1,.17-.1l.39-.24.4-.23.16-.09c-.19.44-.36.88-.54,1.32h0a3.68,3.68,0,0,1,.39-.24l.39-.23a1.06,1.06,0,0,0,.17-.1c-.64,1.38-1.23,2.78-1.8,4.18l.25.15A35.08,35.08,0,0,1,112.46,63a.54.54,0,0,1,.15-.09l.37-.22.37-.22.14-.08c-.41.89-.8,1.8-1.18,2.7l.31-.16c.08,0,.38-.16.42-.24.13-.41.23-.82.35-1.22,0-.06.23-.15.28-.18s.29-.13.29-.17c-.25,1.07-.55,2.13-.85,3.19l.26-.13a2.13,2.13,0,0,0,.37-.22,12.89,12.89,0,0,1-.28,1.53l.07,0-.93,3.42c.05.07.09.15.14.21a1.56,1.56,0,0,0,.16.2c.59-2,1.24-3.91,1.92-5.85.78-2.24,1.56-4.5,2.5-6.68,0-.07.24-.14.31-.18a2.29,2.29,0,0,0,.31-.18c-.36,1.23-.81,2.45-1.24,3.67-.17.46-.34.93-.5,1.4l.22-.11.28-.14v0c0-.11.4-.13.43-.25-.94,3.21-2,6.39-3,9.57l0,0,.1-.06c1.08-3.33,2.3-6.63,3.55-9.9,0-.1.32-.2.4-.25s.39-.17.42-.24c-.54,1.42-1.08,2.85-1.6,4.29s-1.12,3.16-1.64,4.74a.2.2,0,0,0,.08,0l.38-.23.21-.12c.07-.27.15-.54.22-.81a.54.54,0,0,1,.15-.09l0,0c.45-1.42.92-2.84,1.43-4.24,0-.09.32-.2.41-.25s.38-.17.41-.24c-.5,1.41-1,2.83-1.42,4.26l0,0c-.26,1.18-.54,2.37-.83,3.55l0,0-.09.31-.12.49.13-.08.19-.11c.22-.7.43-1.38.63-2.07,0-.09.36-.22.44-.26s.42-.19.44-.26c-.32,1.08-.65,2.15-1,3.23l-.75,2.36c1.09-.33,1.33-1.43,1.81-2.19,1-1.58.61-3.49,1.25-5.19,1.87-4.91,3.56-9.9,5.42-14.82.45-1.16.34-2.7,1.86-3.37.28-.12.38-.93.33-1.4-.3-2.9,1.11-5.24,2.71-7.34a16.13,16.13,0,0,0,2.91-5.39c1.16-3.94,2.88-7.71,3.77-11.74.39-1.81,1.64-2.06,3.33-1.83,0,7.47,0,14.83,0,22.19,0,12.24,0,24.46,0,36.69,0,3,1.26,4.14,4.23,4.15,8.8,0,17.59,0,26.38,0,14.65.06,29.3.16,43.94.18,14.3,0,28.59,0,42.89,0,13.07,0,26.16.08,39.23.11,15.59,0,31.17,0,46.76.07a12.06,12.06,0,0,0,6.85-2,5.7,5.7,0,0,0,2.83-5.4c-.14-2.71,0-5.43,0-8.3,0-5.73.07-11.3.07-16.87,0-10.23,0-20.45-.05-30.68C352.94,17.22,353,11.21,353,5.21ZM85,32.71a1.14,1.14,0,0,1-1.8-.14,4.48,4.48,0,0,1,4.2-2.35C87,31.74,85.55,31.83,85,32.71Zm-2.74-14.4c1.1-.86.78-2,1.16-3,1.51-.1,3.1.21,4.58-.61l1.23,1.47c0,1.1-5.15,4.22-7.23,4.44C81.52,19.75,82.29,19.08,82.21,18.31ZM31.39,54.61c1.48-.2,2.25-2.38,4.17-1.37C33.91,53.21,33.18,55.58,31.39,54.61ZM43.08,37.46a1.53,1.53,0,0,1-.26.72,3.55,3.55,0,0,1-.7.64l-.26.17a3.84,3.84,0,0,1-.27.29,7.16,7.16,0,0,1-1.32,1,15.41,15.41,0,0,1-1.65,1l0,0-.15.09c-.2.13-.41.24-.61.36l-.22.11-.52.31.42-.34a10.82,10.82,0,0,1-1.49.49l-.19,0c-.16,0-.07,0,0,0a.37.37,0,0,1,.07-.12l-1.34.62a7.85,7.85,0,0,0,.73-.44l.82-.49.21-.32c.23-.38.44-.76.66-1.15L38.24,38a17.41,17.41,0,0,1,2.42-3.71c.35-.58.72-1.15,1.12-1.7,0,0,.14-.08.2-.12l.46-.28.13-.07.54-.32c0,1.1-.06,2.22-.2,3.33l.06.34A6.8,6.8,0,0,1,43.08,37.46ZM87.55,57.64c-1.76-1.59-3.81-1.4-5.91-1.17,1.36-.25,2.56-1.08,4-.94,1,.28,1.79.45,2.51.63C88.32,56.81,87.86,57.11,87.55,57.64Zm69.6-42.29-.44.27a2.67,2.67,0,0,1-.61.35c-2,.44-3.94,1-5.87,1.55s-3.81,1.26-5.72,1.87a.9.9,0,0,0,.22-.14h0l-1.38.43a1.13,1.13,0,0,0,.2-.13l.11-.06-1.07.52c-.26.13-.55.2-.83.31l-.24.09-.05.08a.67.67,0,0,1-.1.23c0,.06-.16.11-.21.14l-.51.31-.52.3-.1.05-.12.08a.64.64,0,0,1,.1-.24,6.39,6.39,0,0,0,.09-.89c.07-.39.18-.79.22-1.2a2,2,0,0,0-.24-1.11,2,2,0,0,1-.24-1.05,12.34,12.34,0,0,1,0-1.36c.07-.45.17-.9.26-1.36a13.64,13.64,0,0,0,.19-1.43,6.61,6.61,0,0,0,.07-1.26c0-.35-.12-.7-.14-1.06l-.12.06-.59.35a2.81,2.81,0,0,1,0-.29,2.41,2.41,0,0,1,0-.38l0,0c0-.14,0-.27,0-.41l-.13.08c0-.19,0-.38.06-.57,0,0,.18-.12.21-.13s.31-.2.47-.28h0a.52.52,0,0,1,.06-.16s.16-.1.2-.13l.24-.15.09-.05a.38.38,0,0,1,.11-.08c.44-.28.9-.53,1.34-.78A7.45,7.45,0,0,1,144.15,7L144.4,7l0,0c.4-.16.81-.32,1.22-.46a5.65,5.65,0,0,1,1.18-.34.76.76,0,0,0-.16.11l-.24.14.9-.27.22-.06c.16-.07.34-.13.51-.19.7-.27,1.4-.57,2.11-.78a2,2,0,0,0-.48.29c.73-.23,1.45-.47,2.19-.64-.05,0-.13.09-.18.12l-.45.27-.41.26h0a19.83,19.83,0,0,1,2.22-.62l1.65-.49c1.29-.36,2.59-.68,3.89-1,.94-.22,1.87-.44,2.81-.63-.06,0-.13.08-.19.11l-.45.28a3.25,3.25,0,0,1-.67.39c-2,.53-4.06,1-6.08,1.55l.49-.1a1.13,1.13,0,0,0-.18.12l-.45.27-.14.09a51.61,51.61,0,0,1,7-1.77c-.05,0-.11.07-.15.09l-.38.23-.23.15c.46-.12.93-.22,1.4-.31,0,0-.14.08-.19.11s-.3.18-.45.27a3.48,3.48,0,0,1-.64.38l-1.22.35L158.8,5l0,0-.08,0c-.83.25-1.67.47-2.51.68l-.41.11-.1.08h0l1.28-.24a.76.76,0,0,0-.16.11l-.41.25-.42.24-.13.09a9.62,9.62,0,0,1,1.3-.25.67.67,0,0,0-.18.11l-.44.27-.31.18c.83-.25,1.67-.46,2.51-.7a2.12,2.12,0,0,0-.2.12c-.14.1-.3.19-.45.28a3.56,3.56,0,0,1-.65.38l-.43.13c.49-.08,1-.17,1.48-.21-.05,0-.13.07-.17.1l-.39.23a4,4,0,0,1-.49.3c.43-.07.86-.15,1.29-.18.85-.21,1.71-.38,2.57-.52-.05,0-.12.08-.17.1l-.41.25a2.35,2.35,0,0,1-.57.33c-1.17.31-2.35.56-3.52.86l.1.07c1-.22,2-.45,3-.7a.44.44,0,0,0-.16.1l-.06,0,.35-.08a.49.49,0,0,0-.15.1l-.36.21-.37.22s-.1.08-.15.09l-1.58.42.11.08c1.77-.49,3.53-1,5.32-1.45a1,1,0,0,0-.2.11l-.46.28a3.11,3.11,0,0,1-.65.39c.7-.26,1.41-.52,2.12-.75a4.86,4.86,0,0,0-.53.35,4.43,4.43,0,0,1-.63.36l-.7.27c-.31.19-.61.4-.93.58-1,.55-2.13,1.06-3.22,1.53l.2,0a13.3,13.3,0,0,1,1.43-.57l-.13.1-.45.26a4.68,4.68,0,0,1-.64.38l-.46.19.12,0a8.78,8.78,0,0,1,1.29-.34.71.71,0,0,0-.18.12l-.45.27-.2.12a9.23,9.23,0,0,1,1-.21.93.93,0,0,0-.19.11l-.45.28a3.56,3.56,0,0,1-.65.38h0a1.07,1.07,0,0,1-.22.15c-.13.08-.26.18-.4.25h.43a.11.11,0,0,0-.06,0,9.34,9.34,0,0,1,1.28-.36,1,1,0,0,0-.19.12l-.33.2.34-.08-.12.08.15,0c.5-.23,1-.47,1.51-.69a6.54,6.54,0,0,0-.84.52l.77-.2a.71.71,0,0,0-.2.12l-.45.27a2.9,2.9,0,0,1-.66.38l-1.55.46-.34.16-.06,0a4.06,4.06,0,0,1,1-.19s-.14.09-.18.11l-.42.26-.23.14.15,0c.42-.14.83-.32,1.26-.43,0,0-.12.08-.18.11l-.43.27-.32.19,1.8-.56a5.14,5.14,0,0,0-.55.35,3.35,3.35,0,0,1-.63.37l-1.36.47c1.22-.31,2.46-.6,3.71-.8a1,1,0,0,0-.19.12l-.46.28a2.9,2.9,0,0,1-.66.38c-1.2.3-2.43.55-3.65.85a4.08,4.08,0,0,1-.5.29c-.22.1-.45.18-.68.26.7-.21,1.41-.41,2.12-.6,1.55-.41,3.1-.82,4.67-1.16-.06,0-.14.09-.19.12a4.25,4.25,0,0,1-.46.27,3.3,3.3,0,0,1-.65.39c-1,.27-1.91.51-2.86.75a2.65,2.65,0,0,0-.37.25l-.38.23c.41-.08.82-.16,1.23-.21A.54.54,0,0,0,157.15,15.35Zm47.23,46.42c0,1.92-1.11,2.69-2.86,2.73-1.92,0-3.85.06-5.77,0-1.72-.07-2.71-.73-2.65-2.79.14-4.71,0-9.43,0-14.15a8.28,8.28,0,0,0-.21-1.26c-1,0-1,.73-1.23,1.27-2,4.6-4,9.2-5.84,13.83-.82,2-2,3.2-4.29,3.11-3.65-.14-4.34-.54-5.43-3.32-1.84-4.64-3.73-9.27-5.61-13.9a1.83,1.83,0,0,0-1.12-1.21c-.81,2.22-.21,4.49-.3,6.68-.13,3,0,6,0,9a2.42,2.42,0,0,1-2.62,2.73c-2.06.08-4.15,0-6.22,0-1.79-.06-2.49-1.2-2.5-2.86q0-13.4,0-26.81c0-4.29,0-8.58,0-12.87,0-2.93.5-3.53,3.4-3.61.42,0,.85,0,1.28-.07,3.95-.49,6.2,1.07,7.73,5C173,30.57,177,37.5,180,44.86A2,2,0,0,0,181,46.15c.77-.14.88-.83,1.15-1.4,3.7-8,7.44-15.93,11.09-23.93a4,4,0,0,1,4-2.58c1.58,0,3.15.06,4.72.09s2.42,1,2.42,2.61c0,6.92,0,13.86,0,20.78q0,5.91,0,11.8C204.42,56.48,204.39,59.13,204.38,61.77Zm48.38,2.66c-2.21,0-4.42,0-6.64,0a2.85,2.85,0,0,1-3-2,30.14,30.14,0,0,1-1.57-4.21,2,2,0,0,0-2.37-1.84c-3.57.07-7.14.09-10.71,0A2.19,2.19,0,0,0,226,58.15c-2.43,7.28-1.39,6.27-9.07,6.37-.5,0-1,.08-1.5.06-2.63-.15-3.37-1.17-2.51-3.64,4.59-13.16,9.22-26.31,13.8-39.47.72-2.08,2-3.19,4.28-3.13,2,.06,4,0,6,0,2.32,0,3.25,1.51,3.89,3.36,1.36,3.9,2.66,7.83,4,11.73q4,11.52,8.1,23c.67,2,1.34,3.71,1.8,5.42S254.52,64.4,252.76,64.43Zm46.07-29.74A15.89,15.89,0,0,1,292,46.77c.37,2.89,1.78,5.49,3,8.08,1.07,2.19,1.63,4.56,2.77,6.74,1,1.84,0,3-2.08,3s-4.28,0-6.43,0a3.58,3.58,0,0,1-3.64-2.72c-1.59-4.28-3.3-8.52-4.92-12.79-.29-.75-.7-1.27-1.55-1.18-1.57.16-3.15-.3-5,.3,0,2.56-.09,5.24-.12,7.92,0,1.86,0,3.72,0,5.57a2.43,2.43,0,0,1-2.55,2.8c-2.28.12-4.58.14-6.86,0-1.52-.07-2-1.25-2-2.6q0-11.37,0-22.75c0-5.64,0-11.29,0-16.93,0-3,.61-3.87,3.26-3.9,6.15-.05,12.29,0,18.44,0C294.58,18.32,299.42,26,298.83,34.69Zm43.68-7.53c0,1.8-.82,2.58-2.63,2.55-2.49,0-5,.21-7.48,0-2-.18-2.45.65-2.43,2.38.06,6,.06,12,.06,18,0,3.36,0,6.71,0,10.06,0,4-.32,4.37-4,4.4-1.36,0-2.72.07-4.08,0-2.62-.09-3.28-.71-3.3-3.37,0-5.79,0-11.58,0-17.37,0-4.14,0-8.29.05-12.43,0-1.43-.67-1.71-1.82-1.71h-7.72c-2.54,0-3-.43-3.05-2.94,0-1.79.1-3.58,0-5.36-.13-1.94.82-2.87,2.58-2.95,3.27-.14,6.55-.18,9.83-.19,6.43,0,12.86,0,19.28,0,.29,0,.57,0,.86,0,3.61.16,3.86.38,4,3.93C342.63,23.87,342.49,25.51,342.51,27.16Z"/><path class="cls-1" d="M1.26,55.63c-.29.11-.59.23-.88.36,0,.08-.09.16-.13.24l0,0Z"/><path class="cls-1" d="M1.74,55.45.86,56c.89-.35,1.8-.65,2.7-1a10.82,10.82,0,0,0-1.16.23Z"/><path class="cls-1" d="M2.48,56.66c-.43.22-.87.42-1.31.63l-1.08.56a.08.08,0,0,0,0,0l.79-.16,2.32-1.33Z"/><path class="cls-1" d="M113.73,72.14l0,0c.24-.75.49-1.5.73-2.25C114.25,70.67,114,71.41,113.73,72.14Z"/><path class="cls-1" d="M157.48,4.82l.2-.06-2.35.57.26,0Z"/><path class="cls-1" d="M61,79.63c.12-.67.23-1.33.36-2A4.88,4.88,0,0,0,61,79.63Z"/><path class="cls-1" d="M39.18,40.4l-1,.58c-.21.13-.42.24-.64.36l-.1.06-.21.11h0s0,0,.08,0l.18,0,.28-.08c.29-.19.58-.37.88-.54l.28-.2Z"/><path class="cls-1" d="M58.16,47.3A10.11,10.11,0,0,1,51.8,49,9.26,9.26,0,0,1,58.16,47.3Z"/><path class="cls-1" d="M278.86,37.72c-4.95-.16-4.95-.16-4.82-5.09.08-3.22.08-3.23,3.28-3.27,2.13,0,4.26,0,6.4,0,2.55,0,3.9,1.26,4.1,3.65a3.93,3.93,0,0,1-3.49,4.55A53.82,53.82,0,0,1,278.86,37.72Z"/><path class="cls-1" d="M234.26,46.7c-4.89-.06-5.41.91-3.32-4.93.48-1.34.7-2.78,1.22-4.1s.49-2.82,1.62-4.27c2,4.27,3,8.64,4.59,12.87C237,47,235.65,46.44,234.26,46.7Z"/></g></g></svg>